<?xml version="1.0" standalone="no"?><svg xmlns:xlink="http://www.w3.org/1999/xlink" xmlns="http://www.w3.org/2000/svg" viewBox="0 0 1000 666.6666666666667" preserveAspectRatio="xMaxYMax slice"><g transform="scale(1.5738117721120555)"><rect x="0" y="0" width="635.4000000000001" height="423.6" fill="#2e2e2e"/><g transform="translate(119.14,66.19) scale(1.324) rotate(0)"><rect width="20" height="2" fill="#375a32"/><rect y="4" width="20" height="2" fill="#375a32"/><rect y="8" width="20" height="2" fill="#375a32"/><rect y="12" width="20" height="2" fill="#375a32"/><rect y="16" width="20" height="2" fill="#375a32"/></g><g transform="translate(595.69,66.19) scale(1.324) rotate(0)"><path d="M10 0H20V10L10 20H0V10L10 0Z" fill="#50d23c"/></g><g transform="translate(119.14,119.14) scale(1.324) rotate(0)"><path d="M5 0H10L5 5L0 10V5L5 0Z" fill="#622f30"/><path d="M20 15V20H15L20 15Z" fill="#622f30"/><path d="M20 5V10L15 15L10 20H5L20 5Z" fill="#622f30"/><path d="M15 0H20L5 15.0002L0 20.0002V15.0002L15 0Z" fill="#622f30"/></g><g transform="translate(277.99,119.14) scale(1.324) rotate(0)"><rect width="20" height="2" fill="#4ab63a"/><rect y="4" width="20" height="2" fill="#4ab63a"/><rect y="8" width="20" height="2" fill="#4ab63a"/><rect y="12" width="20" height="2" fill="#4ab63a"/><rect y="16" width="20" height="2" fill="#4ab63a"/></g><g transform="translate(330.94,119.14) scale(1.324) rotate(0)"><path d="M13 0H20V7L7 20H0V13L13 0Z" fill="#2e2e2e"/></g><g transform="translate(436.84,119.14) scale(1.324) rotate(0)"><path d="M10 5L5 0L0 5L5 10L0 15L5 20L10 15L15 20L20 15L15 10L20 5L15 0L10 5Z" fill="#442f2f"/></g><g transform="translate(489.79,119.14) scale(1.324) rotate(0)"><path d="M13 0H20V7L7 20H0V13L13 0Z" fill="#4d2f2f"/></g><g transform="translate(277.99,172.09) scale(1.324) rotate(0)"><rect width="20" height="2" fill="#fb3336"/><rect y="4" width="20" height="2" fill="#fb3336"/><rect y="8" width="20" height="2" fill="#fb3336"/><rect y="12" width="20" height="2" fill="#fb3336"/><rect y="16" width="20" height="2" fill="#fb3336"/></g><g transform="translate(330.94,172.09) scale(1.324) rotate(0)"><path d="M5 0H10L5 5L0 10V5L5 0Z" fill="#893031"/><path d="M20 15V20H15L20 15Z" fill="#893031"/><path d="M20 5V10L15 15L10 20H5L20 5Z" fill="#893031"/><path d="M15 0H20L5 15.0002L0 20.0002V15.0002L15 0Z" fill="#893031"/></g><g transform="translate(383.89,172.09) scale(1.324) rotate(0)"><path d="M10 5L5 0L0 5L5 10L0 15L5 20L10 15L15 20L20 15L15 10L20 5L15 0L10 5Z" fill="#833031"/></g><g transform="translate(436.84,172.09) scale(1.324) rotate(0)"><path d="M5 0H10L5 5L0 10V5L5 0Z" fill="#4fcf3c"/><path d="M20 15V20H15L20 15Z" fill="#4fcf3c"/><path d="M20 5V10L15 15L10 20H5L20 5Z" fill="#4fcf3c"/><path d="M15 0H20L5 15.0002L0 20.0002V15.0002L15 0Z" fill="#4fcf3c"/></g><g transform="translate(489.79,172.09) scale(1.324) rotate(0)"><rect width="20" height="2" fill="#2f342f"/><rect y="4" width="20" height="2" fill="#2f342f"/><rect y="8" width="20" height="2" fill="#2f342f"/><rect y="12" width="20" height="2" fill="#2f342f"/><rect y="16" width="20" height="2" fill="#2f342f"/></g><g transform="translate(542.74,172.09) scale(1.324) rotate(0)"><rect width="20" height="2" fill="#c43234"/><rect y="4" width="20" height="2" fill="#c43234"/><rect y="8" width="20" height="2" fill="#c43234"/><rect y="12" width="20" height="2" fill="#c43234"/><rect y="16" width="20" height="2" fill="#c43234"/></g><g transform="translate(119.14,225.04) scale(1.324) rotate(0)"><path fill-rule="evenodd" clip-rule="evenodd" d="M10 20C15.5228 20 20 15.5228 20 10C20 4.47715 15.5228 0 10 0C4.47715 0 0 4.47715 0 10C0 15.5228 4.47715 20 10 20ZM10 17C13.866 17 17 13.866 17 10C17 6.13401 13.866 3 10 3C6.13401 3 3 6.13401 3 10C3 13.866 6.13401 17 10 17Z" fill="#408535"/></g><g transform="translate(172.09,225.04) scale(1.324) rotate(0)"><path d="M13 0H20V7L7 20H0V13L13 0Z" fill="#3c7134"/></g><path d="M 225.04 251.51999999999998 A 26.48 26.48 0 0 1  251.51999999999998 225.04 L 225.04 251.51999999999998 A 26.48 26.48 0 0 0 251.51999999999998 225.04" fill="#3f8235"/><g transform="translate(277.99,225.04) scale(1.324) rotate(0)"><path fill-rule="evenodd" clip-rule="evenodd" d="M10 20C15.5228 20 20 15.5228 20 10C20 4.47715 15.5228 0 10 0C4.47715 0 0 4.47715 0 10C0 15.5228 4.47715 20 10 20ZM10 17C13.866 17 17 13.866 17 10C17 6.13401 13.866 3 10 3C6.13401 3 3 6.13401 3 10C3 13.866 6.13401 17 10 17Z" fill="#be3133"/></g><g transform="translate(330.94,225.04) scale(1.324) rotate(0)"><path fill-rule="evenodd" clip-rule="evenodd" d="M10 20C15.5228 20 20 15.5228 20 10C20 4.47715 15.5228 0 10 0C4.47715 0 0 4.47715 0 10C0 15.5228 4.47715 20 10 20ZM10 17C13.866 17 17 13.866 17 10C17 6.13401 13.866 3 10 3C6.13401 3 3 6.13401 3 10C3 13.866 6.13401 17 10 17Z" fill="#313a2f"/></g><path d="M 383.89 225.04 A 26.48 26.48 0 0 1  410.37 251.51999999999998 L 383.89 225.04 A 26.48 26.48 0 0 0 410.37 251.51999999999998" fill="#2f352f"/><g transform="translate(436.84,225.04) scale(1.324) rotate(0)"><path d="M10 1L12.2451 7.90983H19.5106L13.6327 12.1803L15.8779 19.0902L10 14.8197L4.12215 19.0902L6.36729 12.1803L0.489441 7.90983H7.75487L10 1Z" fill="#355231"/></g><g transform="translate(172.09,277.99) scale(1.324) rotate(0)"><path fill-rule="evenodd" clip-rule="evenodd" d="M10 20C15.5228 20 20 15.5228 20 10C20 4.47715 15.5228 0 10 0C4.47715 0 0 4.47715 0 10C0 15.5228 4.47715 20 10 20ZM10 17C13.866 17 17 13.866 17 10C17 6.13401 13.866 3 10 3C6.13401 3 3 6.13401 3 10C3 13.866 6.13401 17 10 17Z" fill="#9a3132"/></g><g transform="translate(225.04,277.99) scale(1.324) rotate(0)"><path d="M5 0H10L5 5L0 10V5L5 0Z" fill="#b73133"/><path d="M20 15V20H15L20 15Z" fill="#b73133"/><path d="M20 5V10L15 15L10 20H5L20 5Z" fill="#b73133"/><path d="M15 0H20L5 15.0002L0 20.0002V15.0002L15 0Z" fill="#b73133"/></g><g transform="translate(277.99,277.99) scale(1.324) rotate(0)"><path d="M10 5L5 0L0 5L5 10L0 15L5 20L10 15L15 20L20 15L15 10L20 5L15 0L10 5Z" fill="#3e7934"/></g><g transform="translate(330.94,277.99) scale(1.324) rotate(0)"><path d="M10 5L5 0L0 5L5 10L0 15L5 20L10 15L15 20L20 15L15 10L20 5L15 0L10 5Z" fill="#783031"/></g><g transform="translate(383.89,277.99) scale(1.324) rotate(0)"><path fill-rule="evenodd" clip-rule="evenodd" d="M10 20C15.5228 20 20 15.5228 20 10C20 4.47715 15.5228 0 10 0C4.47715 0 0 4.47715 0 10C0 15.5228 4.47715 20 10 20ZM10 17C13.866 17 17 13.866 17 10C17 6.13401 13.866 3 10 3C6.13401 3 3 6.13401 3 10C3 13.866 6.13401 17 10 17Z" fill="#823031"/></g><path d="M 436.84 277.99 A 26.48 26.48 0 0 1  463.32 304.47 L 436.84 277.99 A 26.48 26.48 0 0 0 463.32 304.47" fill="#783031"/><g transform="translate(489.79,277.99) scale(1.324) rotate(0)"><path d="M10 5L5 0L0 5L5 10L0 15L5 20L10 15L15 20L20 15L15 10L20 5L15 0L10 5Z" fill="#50d03c"/></g><g transform="translate(172.09,330.94) scale(1.324) rotate(0)"><path d="M10 0H20V10L10 20H0V10L10 0Z" fill="#53e33d"/></g><g transform="translate(277.99,330.94) scale(1.324) rotate(0)"><rect width="20" height="2" fill="#f43336"/><rect y="4" width="20" height="2" fill="#f43336"/><rect y="8" width="20" height="2" fill="#f43336"/><rect y="12" width="20" height="2" fill="#f43336"/><rect y="16" width="20" height="2" fill="#f43336"/></g><g transform="translate(330.94,330.94) scale(1.324) rotate(0)"><path d="M10 5L5 0L0 5L5 10L0 15L5 20L10 15L15 20L20 15L15 10L20 5L15 0L10 5Z" fill="#3e7c35"/></g><g transform="translate(383.89,330.94) scale(1.324) rotate(0)"><path fill-rule="evenodd" clip-rule="evenodd" d="M10 20C15.5228 20 20 15.5228 20 10C20 4.47715 15.5228 0 10 0C4.47715 0 0 4.47715 0 10C0 15.5228 4.47715 20 10 20ZM10 17C13.866 17 17 13.866 17 10C17 6.13401 13.866 3 10 3C6.13401 3 3 6.13401 3 10C3 13.866 6.13401 17 10 17Z" fill="#aa3133"/></g><g transform="translate(436.84,330.94) scale(1.324) rotate(0)"><rect width="20" height="2" fill="#d53234"/><rect y="4" width="20" height="2" fill="#d53234"/><rect y="8" width="20" height="2" fill="#d53234"/><rect y="12" width="20" height="2" fill="#d53234"/><rect y="16" width="20" height="2" fill="#d53234"/></g><g transform="translate(489.79,330.94) scale(1.324) rotate(0)"><path d="M10 0H20L0 20V10L10 0Z" fill="#352e2e"/><path d="M20 10V20H10L20 10Z" fill="#352e2e"/></g><g transform="translate(172.09,383.89) scale(1.324) rotate(0)"><path d="M10 0H20L0 20V10L10 0Z" fill="#3c7434"/><path d="M20 10V20H10L20 10Z" fill="#3c7434"/></g><g transform="translate(225.04,383.89) scale(1.324) rotate(0)"><path d="M10 1L12.2451 7.90983H19.5106L13.6327 12.1803L15.8779 19.0902L10 14.8197L4.12215 19.0902L6.36729 12.1803L0.489441 7.90983H7.75487L10 1Z" fill="#408335"/></g></g></svg>